<svg version="1.2" xmlns="http://www.w3.org/2000/svg" viewBox="0 0 87 87" width="87" height="87"><style></style><path fill-rule="evenodd" d="m4 63.6v-32.2c0-3.6 3-6.6 6.6-6.6h28.1l0.7-3.7c0.7-3.5 4.2-5.8 7.7-5.1l31.6 6.3c3.6 0.7 5.9 4.2 5.2 7.7l-6.3 31.6c-0.4 1.7-1.4 3.2-2.8 4.2-1.1 0.7-2.4 1.1-3.7 1.1q-0.6 0-1.3-0.2l-20.4-4.1v1c0 3.6-3 6.6-6.6 6.6h-32.2c-3.6 0-6.6-3-6.6-6.6zm37.7-38.8h1.1c3.6 0 6.6 3 6.6 6.6v28.2l21 4.2c1 0.2 1.9 0 2.7-0.5 0.8-0.6 1.3-1.4 1.5-2.3l6.3-31.6c0.4-1.9-0.8-3.8-2.8-4.2l-31.6-6.3q-0.3-0.1-0.7-0.1c-1.6 0-3.1 1.2-3.4 2.9 0 0-0.7 3.1-0.7 3.1zm-34.7 38.8c0 2 1.6 3.6 3.6 3.6h32.2c1.9 0 3.6-1.6 3.6-3.6v-32.2c0-2-1.7-3.6-3.6-3.6h-32.2c-2 0-3.6 1.6-3.6 3.6z"/><path fill-rule="evenodd" d="m12 37.8c0-2.8 2.3-5.1 5.1-5.1 2.8 0 5.1 2.3 5.1 5.1 0 2.8-2.3 5.1-5.1 5.1-2.8 0-5.1-2.3-5.1-5.1zm3 0c0 1.1 1 2 2.1 2 1.2 0 2.1-0.9 2.1-2 0-1.2-0.9-2.1-2.1-2.1-1.1 0-2.1 0.9-2.1 2.1z"/><path fill-rule="evenodd" d="m31.1 37.8c0-2.8 2.3-5.1 5.1-5.1 2.8 0 5.1 2.3 5.1 5.1 0 2.8-2.3 5.1-5.1 5.1-2.8 0-5.1-2.3-5.1-5.1zm3 0c0 1.1 1 2 2.1 2 1.2 0 2.1-0.9 2.1-2 0-1.2-0.9-2.1-2.1-2.1-1.1 0-2.1 0.9-2.1 2.1z"/><path fill-rule="evenodd" d="m12 57.2c0-2.8 2.3-5 5.1-5 2.8 0 5.1 2.2 5.1 5 0 2.8-2.3 5.1-5.1 5.1-2.8 0-5.1-2.3-5.1-5.1zm3 0c0 1.2 1 2.1 2.1 2.1 1.2 0 2.1-0.9 2.1-2.1 0-1.1-0.9-2.1-2.1-2.1-1.1 0-2.1 1-2.1 2.1z"/><path fill-rule="evenodd" d="m41.3 57.2c0 2.8-2.3 5.1-5.1 5.1-2.8 0-5.1-2.3-5.1-5.1 0-2.8 2.3-5.1 5.1-5.1 2.8 0 5.1 2.3 5.1 5.1zm-3 0c0-1.1-0.9-2-2.1-2-1.1 0-2.1 0.9-2.1 2 0 1.2 1 2.1 2.1 2.1 1.2 0 2.1-0.9 2.1-2.1z"/><path fill-rule="evenodd" d="m21.6 47.5c0-2.8 2.3-5.1 5.1-5.1 2.8 0 5.1 2.3 5.1 5.1 0 2.8-2.3 5.1-5.1 5.1-2.8 0-5.1-2.3-5.1-5.1zm3 0c0 1.1 0.9 2.1 2.1 2.1 1.1 0 2.1-1 2.1-2.1 0-1.1-1-2.1-2.1-2.1-1.2 0-2.1 1-2.1 2.1z"/><path fill-rule="evenodd" d="m53.4 41.4c0-2.9 2.3-5.1 5.1-5.1 2.8 0 5.1 2.3 5.1 5.1 0 2.7-2.3 5-5.1 5-2.8 0-5.1-2.2-5.1-5zm3 0c0 1.1 0.9 2 2.1 2 1.1 0 2.1-0.9 2.1-2 0-1.2-1-2.1-2.1-2.1-1.2 0-2.1 0.9-2.1 2.1z"/></svg>