<?xml version="1.0" encoding="UTF-8" standalone="no"?>
<!DOCTYPE svg PUBLIC "-//W3C//DTD SVG 1.1//EN" "http://www.w3.org/Graphics/SVG/1.1/DTD/svg11.dtd">
<svg width="100%" height="100%" viewBox="0 0 1000 500" version="1.1" xmlns="http://www.w3.org/2000/svg" xmlns:xlink="http://www.w3.org/1999/xlink" xml:space="preserve" xmlns:serif="http://www.serif.com/" style="fill-rule:evenodd;clip-rule:evenodd;stroke-linecap:round;stroke-linejoin:round;stroke-miterlimit:1.5;">
    <path d="M49.643,262.304C48.192,263.439 51.418,259.053 52.574,257.619C58.028,250.846 63.546,244.125 69.06,237.401C79.202,225.034 90.009,213.476 101.191,202.055C103.257,199.945 112.152,185.923 117.024,190.041C129.401,200.502 139.569,215.224 149.267,227.946C182.24,271.2 216.595,319.511 210.414,376.559C209.408,385.846 203.56,395.977 199.799,404.277C195.626,413.486 190.021,422.073 182.136,428.514C150.425,454.418 114.841,421.457 104.284,390.992C94.496,362.746 107.896,333.489 121.77,309.182C131.276,292.529 143.56,277.683 155.51,262.764C161.382,255.433 167.177,244.915 174.261,238.533C175.493,237.424 184.172,238.512 185.377,238.496C193.617,238.386 201.523,237.577 209.567,235.64C225.429,231.82 242.78,225.103 255.316,214.372C273.2,199.063 281.704,165.325 266.203,145.931C248.693,124.023 221.495,151.503 214.286,167.584C200.166,199.084 208.039,247.973 230.531,273.932C237.787,282.307 246.249,284.008 256.795,284.742C283.281,286.586 301.526,265.118 314.32,244.735C321.224,233.737 325.224,221.217 328.12,208.62C328.883,205.299 329.421,201.93 330.153,198.602C330.42,197.388 330.897,193.706 330.897,194.948C330.897,205.269 331.175,215.503 331.685,225.816C332.1,234.199 332.316,242.605 333.099,250.966C333.625,256.581 333.675,265.854 337.09,270.824C343.846,280.657 361.739,257.956 363.751,255.648C366.411,252.597 368.898,249.4 371.489,246.29C375.58,241.378 379.689,236.48 383.796,231.58C386.2,228.713 388.547,225.798 391.021,222.992C394.766,218.743 402.193,209.297 409.506,211.507C414.05,212.88 415.939,221.021 417.244,224.452C420.341,232.6 427.253,262.567 437.487,264.822C449.89,267.555 455.98,236.672 458.064,229.491C459.299,225.234 460.418,220.945 461.636,216.683C463.809,209.074 465.424,203.484 467.91,196.184C469.271,192.186 470.062,190.171 471.685,186.522C472.108,185.573 474.179,183.878 473.146,183.767" style="fill:none;stroke:blue;stroke-width:50px;"/>
    <path d="M472.745,183.767C488.835,183.767 529.399,189.353 540.304,176.201C552.372,161.647 587.443,119.697 556.703,108.958C552.488,107.486 548.698,106.899 544.301,106.95C538.994,107.012 531.551,105.52 526.505,107.817C503.289,118.387 501.71,144.572 501.843,166.339C502.146,216.319 525.965,259.608 581.54,251.31" style="fill:none;stroke:blue;stroke-width:50px;"/>
    <path d="M573.504,248.586L594.055,248.586C636.458,248.586 635.731,242.207 665.226,212.108C673.319,203.849 673.784,203.841 681.617,195.28C697.733,177.666 712.317,157.107 721.242,134.855C736.094,97.826 717.584,34.594 669.824,40.684C653.168,42.808 643.277,66.031 638.998,79.776C624.125,127.551 627.68,184.134 639.197,231.942C643.91,251.506 649.166,271.83 658.04,290.019C660.899,295.878 664.584,301.026 668.826,305.969C669.245,306.457 675.628,313.001 674.7,313.001" style="fill:none;stroke:blue;stroke-width:50px;"/>
    <path d="M657.537,215.237C657.537,236.397 660.386,251.033 670.933,268.877C672.689,271.848 674.516,274.804 676.185,277.824C676.344,278.11 679.31,283.046 679.368,282.984C681.27,280.968 678.236,277.542 677.323,274.925C673.759,264.71 670.321,254.477 667.767,243.95C666.495,238.708 665.576,233.379 664.093,228.187C663.141,224.857 661.682,221.815 660.408,218.647C660.35,218.503 660.373,218.059 660.293,218.194C658.831,220.667 665.491,232.087 666.341,234.055C671.731,246.537 677.6,258.802 683.11,271.227C683.516,272.141 687.626,283.874 690.056,283.648C713.138,281.5 738.92,264.034 758.497,252.89C766.655,248.246 777.924,238.31 787.565,236.534" style="fill:none;stroke:blue;stroke-width:50px;"/>
    <path d="M674.995,300.683C687.447,300.683 700.226,301.524 712.434,298.571C768.46,285.022 829.789,218.848 852.818,167.504C865.222,139.847 874.478,95.145 857.084,67.816C846.991,51.958 830.036,64.632 819.72,74.6C796.234,97.294 784.437,130.219 780.074,161.942C776.836,185.479 777.895,209.392 777.794,233.049C777.666,263.327 782.302,292.909 788.356,322.597C789.842,329.885 793.279,337.142 794.324,344.456" style="fill:none;stroke:blue;stroke-width:50px;"/>
    <path d="M946.352,132.204C946.352,178.332 933.403,217.868 916.658,261.042C915.925,262.932 895.15,324.729 892.668,314.632" style="fill:none;stroke:blue;stroke-width:50px;"/>
    <path d="M866.507,400.299L866.507,400.421" style="fill:none;stroke:blue;stroke-width:50px;"/>
    <path d="M83.182,147.563L83.182,147.437" style="fill:none;stroke:blue;stroke-width:50px;"/>
    <path d="M672.895,318.709C691.509,318.709 709.403,307.585 725.871,299.351C731.385,296.594 736.263,290.199 742.995,288.562C745.813,287.876 737.598,290.693 734.939,291.851C728.974,294.449 729.361,294.296 723.027,297.516C713.751,302.23 683.313,319.493 671.666,315.585C661.881,312.301 653.802,265.147 653.802,255.109" style="fill:rgb(255,0,159);stroke:blue;stroke-width:50px;"/>
    <path d="M675.117,88.572C671.654,95.399 674.574,109.948 674.574,117.723C674.574,128.654 668.365,138.925 668.365,149.454C668.365,159.672 672.512,147.311 678.288,140.011C680.108,137.712 681.841,135.345 683.563,132.972C686.992,128.245 689.591,124.472 692.545,119.472C694.477,116.201 704.672,91.457 706.888,90.412C710.002,88.943 703.775,96.557 702.152,99.594C701.081,101.601 695.409,112.366 694.498,114.028C686.567,128.504 679.51,143.102 672.71,158.124C671.279,161.286 662.378,183.987 662.905,178.951" style="fill:none;stroke:blue;stroke-width:50px;"/>
    <path d="M832.669,123.742C833.39,121.809 831.849,127.798 831.18,129.75C829.066,135.909 827.289,138.807 824.455,144.518C816.709,160.132 807.204,176.962 803.884,194.303C802.942,199.223 803.469,204.599 803.341,209.587C803.268,212.397 803.221,212.249 802.762,214.881C802.57,215.98 802.203,219.304 802.395,218.206C804.307,207.283 809.597,195.598 812.145,184.785C818.326,158.553 821.652,131.073 831.282,105.74C835.117,95.652 841.059,71.6 852.649,65.63" style="fill:none;stroke:blue;stroke-width:50px;"/>
    <path d="M243.794,161.934C241.571,170.123 236.644,200.676 226.942,200.676" style="fill:none;stroke:blue;stroke-width:50px;"/>
    <path d="M526.291,134.981C527.106,136.101 521.369,156.025 518.535,156.025" style="fill:none;stroke:blue;stroke-width:50px;"/>
    <path d="M140.116,298.299L140.116,332.039C140.116,339.897 136.506,357.981 140.857,365.07C146.67,374.542 166.571,356.467 169.318,353.512C185.866,335.714 195.39,310.094 197.062,286.21C197.746,276.445 194.273,265.756 183.054,263.914C171.119,261.953 166.199,275.728 163.106,284.855C153.503,313.184 150.635,341.214 149.732,370.826C149.395,381.877 149.578,392.914 149.472,403.967C149.436,407.74 149.239,411.319 148.542,415.016C148.44,415.56 147.735,416.91 148.219,416.643C155.676,412.542 167.306,382.551 175.258,372.827C176.862,370.866 181.089,360.973 183.645,360.973" style="fill:none;stroke:blue;stroke-width:50px;"/>
</svg>
