<svg xmlns="http://www.w3.org/2000/svg" viewBox="0 0 113.87 107.24">
    <path d="M76.036 101.07c19.284-8.8 20.544-11.421 23.25-16.75 7.74-15.243 9.322-14.364 5.75-39-1.673-11.541-13.893-26.639-18-30-9.627-7.879-18.255-9.695-36.75-6.5-13.323 2.302-27.719 9.108-35 20.5-6.989 10.934-12.665 9.21-3.75 38.75 3.85 12.757 4.689 20.333 27.25 29.25 3.541 1.4 24.934-1.31 35-7.75 8.115-5.192 15.796-13.518 17.5-23 2.08-11.572-2.465-24.939-10.25-33.75-8.429-9.539-13.731-11.265-26.5-10.75-11.251.454-17.561 1.355-29.75 16-4.132 4.965-7.964 14.454-2.5 28.25 3.26 8.23 11.167 15.587 19.75 17.75 8.898 2.242 19.618-.726 26.75-6.5 5.533-4.48 9.067-12.133 9.25-19.25.2-7.767-2.981-16.588-9-21.5-4.672-3.813-12.007-5.339-17.75-3.5-7.748 2.48-14.188 2.971-16.75 17.75-1.223 7.054 2.471 16.563 9 19.5 5 2.25 12.268-.514 15.75-4.75 3.243-3.946 4.563-11.163 1.5-15.25-2.695-3.597-9.648-5.188-13.25-2.5-2.618 1.954-3.723 7.798-1 9.75 3.24 2.322 2.787 7.841-3.5 5-5.446-2.462-5.06-10.541-3.25-15.5 1.67-4.573 6.672-8.38 11.5-9 6.034-.775 13.17 2.331 16.75 7.25 4.09 5.618 5.432 14.708 2 20.75-2.338 4.115-21.774 14.009-25.5 13-6.52-1.766-12.874-6.638-15.75-12.75-3.335-7.088-3.4-16.568.25-23.5 4.46-8.47 14.01-15.25 23.5-16.5 9.148-1.205 23.356 3.885 26 9.5 10.33 21.939 10.14 28.587 9.25 31.5-1.032 3.376-16.911 16.292-29.5 21.5-7.393 3.058-16.709 3.043-24-.25-9.196-4.153-17.105-12.912-20.25-22.5-3.42-10.424-2.276-23.273 3.25-32.75 5.392-9.247 16.062-15.214 26.25-18.5 7.852-2.533 17.012-3.113 24.75-.25 11.631 4.303 22.911 13.19 28 24.5 5.437 12.083 5.662 27.892-.25 39.75-5.146 10.322-16.75 16.82-27.5 21-12.165 4.73-26.817 8.183-39 3.5-11.558-4.438-20.43-15.838-25.25-27.245-4.97-11.761-5.593-25.999-2-38.25 3.176-10.83 10.455-21.099 19.75-27.5C33.323 2.802 48.096-.557 61.786.075c11.877.549 24.642 4.319 33.5 12.25 9.912 8.875 15.248 22.683 17.75 35.75 2.091 10.923-.092 27.654-2.75 33.25-5.37 11.31-15.287 19.026-27.75 24-14.391 5.743-8.855-3.175-6.5-4.25z"/>
</svg>
